<?xml version="1.0" encoding="utf-8"?>
<!-- Generator: Adobe Illustrator 28.0.0, SVG Export Plug-In . SVG Version: 6.00 Build 0)  -->
<svg version="1.1" id="Capa_1" xmlns="http://www.w3.org/2000/svg" xmlns:xlink="http://www.w3.org/1999/xlink" x="0px" y="0px"
	 viewBox="0 0 25 25" style="enable-background:new 0 0 25 25;" xml:space="preserve">
<style type="text/css">
	.st0{fill:#808080;}
</style>
<path class="st0" d="M17.7,15.7c2.9-4,2.1-9.6-1.9-12.6S6.1,1.1,3.2,5.1s-2.1,9.6,1.9,12.6c3.2,2.3,7.5,2.3,10.6,0h0
	c0,0.1,0.1,0.1,0.1,0.2l5.3,5.3c0.5,0.5,1.4,0.5,2,0s0.5-1.4,0-2l-5.3-5.3C17.8,15.8,17.7,15.8,17.7,15.7L17.7,15.7z M18,10.4
	c0,4.2-3.4,7.6-7.6,7.6s-7.6-3.4-7.6-7.6s3.4-7.6,7.6-7.6S18,6.2,18,10.4"/>
</svg>
