<svg width="48" height="49" viewBox="0 0 48 49" fill="none" xmlns="http://www.w3.org/2000/svg">
<path d="M19.434 41.498L34.98 25.55C35.253 25.2699 35.4058 24.8942 35.4058 24.503C35.4058 24.1118 35.253 23.7361 34.98 23.456L19.434 7.502C19.3068 7.37137 19.1547 7.26754 18.9867 7.19665C18.8188 7.12575 18.6383 7.08923 18.456 7.08923C18.2737 7.08923 18.0932 7.12575 17.9252 7.19665C17.7572 7.26754 17.6052 7.37137 17.478 7.502C17.2163 7.76989 17.0698 8.12952 17.0698 8.504C17.0698 8.87848 17.2163 9.2381 17.478 9.506L32.097 24.503L17.478 39.497C17.2172 39.7648 17.0713 40.1237 17.0713 40.4975C17.0713 40.8713 17.2172 41.2302 17.478 41.498C17.6052 41.6286 17.7572 41.7325 17.9252 41.8033C18.0932 41.8742 18.2736 41.9108 18.456 41.9108C18.6383 41.9108 18.8188 41.8742 18.9867 41.8033C19.1547 41.7325 19.3068 41.6286 19.434 41.498Z" fill="url(#paint0_linear_261_671)"/>
<defs>
<linearGradient id="paint0_linear_261_671" x1="35.1322" y1="7.08923" x2="13.5578" y2="9.68105" gradientUnits="userSpaceOnUse">
<stop stop-color="#009C7C"/>
<stop offset="1" stop-color="#79AE43"/>
</linearGradient>
</defs>
</svg>
