<svg width="41" height="42" viewBox="0 0 41 42" fill="none" xmlns="http://www.w3.org/2000/svg">
<path d="M25.8798 24.2219C27.2717 22.4049 27.8951 20.1522 27.6253 17.9143C27.3555 15.6765 26.2124 13.6187 24.4247 12.1525C22.6371 10.6863 20.3366 9.9199 17.9837 10.0066C15.6307 10.0934 13.3987 11.0268 11.7343 12.6203C10.0698 14.2137 9.09566 16.3496 9.00668 18.6007C8.9177 20.8517 9.72046 23.0519 11.2544 24.761C12.7883 26.4702 14.9402 27.5622 17.2796 27.8187C19.619 28.0752 21.9734 27.4772 23.8717 26.1444H23.8702C23.9134 26.1994 23.9594 26.2516 24.0111 26.3025L29.5453 31.5968C29.8148 31.8548 30.1804 31.9999 30.5618 32C30.9431 32.0001 31.3088 31.8553 31.5785 31.5975C31.8483 31.3396 31.9999 30.9899 32 30.6251C32.0001 30.2603 31.8488 29.9104 31.5793 29.6524L26.0451 24.3581C25.9937 24.3083 25.9384 24.2637 25.8798 24.2219ZM26.2506 18.9359C26.2506 19.9291 26.0461 20.9126 25.6488 21.8302C25.2515 22.7478 24.6692 23.5816 23.935 24.2839C23.2009 24.9862 22.3294 25.5433 21.3702 25.9234C20.411 26.3035 19.3829 26.4992 18.3447 26.4992C17.3065 26.4992 16.2784 26.3035 15.3192 25.9234C14.36 25.5433 13.4885 24.9862 12.7543 24.2839C12.0202 23.5816 11.4379 22.7478 11.0405 21.8302C10.6432 20.9126 10.4387 19.9291 10.4387 18.9359C10.4387 16.93 11.2717 15.0062 12.7543 13.5878C14.237 12.1694 16.2479 11.3726 18.3447 11.3726C20.4415 11.3726 22.4524 12.1694 23.935 13.5878C25.4177 15.0062 26.2506 16.93 26.2506 18.9359Z" fill="#808080"/>
</svg>
