<svg width="48" height="49" viewBox="0 0 48 49" fill="none" xmlns="http://www.w3.org/2000/svg">
<path d="M28.566 7.502L13.02 23.45C12.7469 23.7301 12.5941 24.1058 12.5941 24.497C12.5941 24.8882 12.7469 25.2639 13.02 25.544L28.566 41.498C28.6932 41.6286 28.8452 41.7325 29.0132 41.8034C29.1812 41.8742 29.3616 41.9108 29.544 41.9108C29.7263 41.9108 29.9068 41.8742 30.0747 41.8034C30.2427 41.7325 30.3948 41.6286 30.522 41.498C30.7836 41.2301 30.9301 40.8705 30.9301 40.496C30.9301 40.1215 30.7836 39.7619 30.522 39.494L15.903 24.497L30.522 9.503C30.7827 9.23525 30.9287 8.87626 30.9287 8.5025C30.9287 8.12875 30.7827 7.76976 30.522 7.502C30.3948 7.37137 30.2427 7.26755 30.0747 7.19665C29.9068 7.12576 29.7263 7.08923 29.544 7.08923C29.3616 7.08923 29.1812 7.12576 29.0132 7.19665C28.8452 7.26755 28.6932 7.37137 28.566 7.502Z" fill="url(#paint0_linear_261_669)"/>
<defs>
<linearGradient id="paint0_linear_261_669" x1="12.8678" y1="41.9108" x2="34.4421" y2="39.3189" gradientUnits="userSpaceOnUse">
<stop stop-color="#009C7C"/>
<stop offset="1" stop-color="#79AE43"/>
</linearGradient>
</defs>
</svg>
